<?xml version="1.0" encoding="UTF-8" standalone="no"?>
<!-- Created with Inkscape (http://www.inkscape.org/) -->

<svg
   xmlns:sketch="http://www.bohemiancoding.com/sketch/ns"
   xmlns:osb="http://www.openswatchbook.org/uri/2009/osb"
   xmlns:dc="http://purl.org/dc/elements/1.1/"
   xmlns:cc="http://creativecommons.org/ns#"
   xmlns:rdf="http://www.w3.org/1999/02/22-rdf-syntax-ns#"
   xmlns:svg="http://www.w3.org/2000/svg"
   xmlns="http://www.w3.org/2000/svg"
   xmlns:sodipodi="http://sodipodi.sourceforge.net/DTD/sodipodi-0.dtd"
   xmlns:inkscape="http://www.inkscape.org/namespaces/inkscape"
   width="96"
   height="24"
   id="svg3526"
   version="1.1"
   inkscape:version="0.48.4 r9939"
   inkscape:export-filename="/usr/local/google/home/caseq/aa.png"
   inkscape:export-xdpi="90"
   inkscape:export-ydpi="90"
   sodipodi:docname="transformControls.svg">
  <defs
     id="defs3528">
    <linearGradient
       id="linearGradient7837"
       osb:paint="solid">
      <stop
         style="stop-color:#ffffff;stop-opacity:1;"
         offset="0"
         id="stop7839" />
    </linearGradient>
    <linearGradient
       id="linearGradient7716"
       osb:paint="solid">
      <stop
         style="stop-color:#ffffff;stop-opacity:1;"
         offset="0"
         id="stop7718" />
    </linearGradient>
    <linearGradient
       id="linearGradient6266"
       osb:paint="solid">
      <stop
         style="stop-color:#ffffff;stop-opacity:1;"
         offset="0"
         id="stop6268" />
    </linearGradient>
    <marker
       inkscape:stockid="TriangleOutL"
       orient="auto"
       refY="0"
       refX="0"
       id="TriangleOutL"
       style="overflow:visible">
      <path
         id="path4691"
         d="m 5.77,0 -8.65,5 0,-10 8.65,5 z"
         style="fill-rule:evenodd;stroke:#000000;stroke-width:1pt"
         transform="scale(0.8,0.8)"
         inkscape:connector-curvature="0" />
    </marker>
    <marker
       inkscape:stockid="Arrow1Lend"
       orient="auto"
       refY="0"
       refX="0"
       id="Arrow1Lend"
       style="overflow:visible">
      <path
         id="path4552"
         d="M 0,0 5,-5 -12.5,0 5,5 0,0 z"
         style="fill-rule:evenodd;stroke:#000000;stroke-width:1pt"
         transform="matrix(-0.8,0,0,-0.8,-10,0)"
         inkscape:connector-curvature="0" />
    </marker>
    <marker
       inkscape:stockid="Arrow1Lstart"
       orient="auto"
       refY="0"
       refX="0"
       id="Arrow1Lstart"
       style="overflow:visible">
      <path
         id="path4549"
         d="M 0,0 5,-5 -12.5,0 5,5 0,0 z"
         style="fill-rule:evenodd;stroke:#000000;stroke-width:1pt"
         transform="matrix(0.8,0,0,0.8,10,0)"
         inkscape:connector-curvature="0" />
    </marker>
    <marker
       inkscape:stockid="Arrow2Lend"
       orient="auto"
       refY="0"
       refX="0"
       id="Arrow2Lend"
       style="overflow:visible">
      <path
         id="path4570"
         style="fill-rule:evenodd;stroke-width:0.625;stroke-linejoin:round"
         d="M 8.7185878,4.0337352 -2.2072895,0.01601326 8.7185884,-4.0017078 c -1.7454984,2.3720609 -1.7354408,5.6174519 -6e-7,8.035443 z"
         transform="matrix(-1.1,0,0,-1.1,-1.1,0)"
         inkscape:connector-curvature="0" />
    </marker>
    <linearGradient
       id="linearGradient4539"
       osb:paint="solid">
      <stop
         style="stop-color:#000000;stop-opacity:1;"
         offset="0"
         id="stop4541" />
    </linearGradient>
    <linearGradient
       id="linearGradient4405"
       osb:paint="solid">
      <stop
         style="stop-color:#ff0000;stop-opacity:1;"
         offset="0"
         id="stop4407" />
    </linearGradient>
  </defs>
  <sodipodi:namedview
     id="base"
     pagecolor="#ffffff"
     bordercolor="#666666"
     borderopacity="1.0"
     inkscape:pageopacity="0.0"
     inkscape:pageshadow="2"
     inkscape:zoom="8"
     inkscape:cx="53.1664"
     inkscape:cy="17.440389"
     inkscape:document-units="px"
     inkscape:current-layer="layer1"
     showgrid="true"
     inkscape:window-width="1367"
     inkscape:window-height="704"
     inkscape:window-x="638"
     inkscape:window-y="418"
     inkscape:window-maximized="0"
     borderlayer="false">
    <inkscape:grid
       type="xygrid"
       id="grid3536"
       empspacing="16"
       visible="true"
       enabled="true"
       snapvisiblegridlinesonly="true" />
  </sodipodi:namedview>
  <metadata
     id="metadata3531">
    <rdf:RDF>
      <cc:Work
         rdf:about="">
        <dc:format>image/svg+xml</dc:format>
        <dc:type
           rdf:resource="http://purl.org/dc/dcmitype/StillImage" />
        <dc:title />
      </cc:Work>
    </rdf:RDF>
  </metadata>
  <g
     inkscape:label="Layer 1"
     inkscape:groupmode="layer"
     id="layer1"
     transform="translate(0,-1028.3622)">
    <path
       style="fill:#000000;fill-opacity:1;stroke:#000000;stroke-width:1;stroke-linecap:butt;stroke-linejoin:miter;stroke-miterlimit:4;stroke-opacity:1;stroke-dasharray:none"
       d="m 14.500006,1035.8611 -1,0 2,-2 2,2 -1,0 c 0,0 -0.03448,4.6379 -0.03448,4.0345 l 4.03448,-0.034 0,-1 2,2 -2,2 0,-1 -4.034484,-0.034 0.03448,4.0346 1,0 -2,2 -2,-2 1,0 0.03448,-4.0346 -4.034482,0.034 0,1 -2,-2 2,-2 0,1 4.034482,0.034 z"
       id="path3550"
       inkscape:connector-curvature="0"
       sodipodi:nodetypes="ccccccccccccccccccccccccc"
       inkscape:export-filename="/usr/local/google/home/caseq/aa.png"
       inkscape:export-xdpi="90"
       inkscape:export-ydpi="90" />
    <path
       sodipodi:type="arc"
       style="fill:#000000;fill-opacity:1;fill-rule:evenodd;stroke:#000000;stroke-width:2.77777767;stroke-linecap:butt;stroke-linejoin:miter;stroke-miterlimit:4;stroke-opacity:1;stroke-dasharray:none"
       id="path3635"
       sodipodi:cx="50"
       sodipodi:cy="14"
       sodipodi:rx="3"
       sodipodi:ry="3"
       d="m 53,14 c 0,1.656854 -1.343146,3 -3,3 -1.656854,0 -3,-1.343146 -3,-3 0,-1.656854 1.343146,-3 3,-3 1.656854,0 3,1.343146 3,3 z"
       transform="matrix(0.36,0,0,0.36,29.5,1035.8222)" />
    <path
       style="fill:#000000;fill-opacity:1;stroke:#000000;stroke-width:1;stroke-linecap:butt;stroke-linejoin:miter;stroke-miterlimit:4;stroke-opacity:1;stroke-dasharray:none"
       d="m 47.483869,1037.8622 2.54033,-2 -1.524199,0 0,-2 -2,0 -0.01613,2 -1.54033,0 z"
       id="path4411-7"
       inkscape:connector-curvature="0"
       sodipodi:nodetypes="cccccccc" />
    <path
       style="fill:#000000;fill-opacity:1;stroke:#000000;stroke-width:1;stroke-linecap:butt;stroke-linejoin:miter;stroke-miterlimit:4;stroke-opacity:1;stroke-dasharray:none"
       d="m 50.5,1040.8622 2,2.5 0,-1.4998 2,-10e-5 0,-2.0002 -2,10e-5 0,-1.5 z"
       id="path4411-7-7"
       inkscape:connector-curvature="0"
       sodipodi:nodetypes="cccccccc" />
    <path
       style="fill:#000000;fill-opacity:1;stroke:#000000;stroke-width:1;stroke-linecap:butt;stroke-linejoin:miter;stroke-miterlimit:4;stroke-opacity:1;stroke-dasharray:none"
       d="m 47.5,1043.8622 -2.5,2 1.5,0 0,2 2,0 0,-2 1.5,0 z"
       id="path4411-7-7-3"
       inkscape:connector-curvature="0"
       sodipodi:nodetypes="cccccccc" />
    <path
       style="fill:#000000;fill-opacity:1;stroke:#000000;stroke-width:1;stroke-linecap:butt;stroke-linejoin:miter;stroke-miterlimit:4;stroke-opacity:1;stroke-dasharray:none"
       d="m 44.5,1040.8622 -2,-2.5 0,1.4999 -2,0 0,2.0002 2,-3e-4 0,1.5002 z"
       id="path4411-7-7-3-5"
       inkscape:connector-curvature="0"
       sodipodi:nodetypes="cccccccc" />
    <path
       style="fill:#000000;stroke:none;fill-opacity:1"
       inkscape:connector-curvature="0"
       d="m 74.198406,1038.5109 c 0.05512,-0.1128 0.153392,-0.22 0.2313,-0.3064 0.545843,-0.6074 1.388934,-1.1974 3.005289,-1.5702 l 0,-2.1715 c -1.293084,0.2523 -2.31462,0.6686 -3.303991,1.5597 -0.332484,0.3832 -0.505434,0.6247 -0.514001,1.1665 -0.007,0.443 0.177314,0.8863 0.581403,1.3219 z m 6.630935,3.1292 c -1.616355,-0.024 -3.109059,-0.2558 -4.622776,-0.764 -2.693817,-0.9037 -3.028564,-2.1697 -3.170318,-2.5931 -0.09585,1.6897 0.02796,2.9573 0.03459,3.0648 0.09197,1.5004 1.291791,2.6742 2.15751,3.1151 1.779607,0.9067 3.661368,1.3756 5.600994,1.4151 l 0,2.4842 3.250975,-4.6483 -3.250975,-4.6486 0,2.5748 z m -0.323271,-5.2959 c 1.616355,0.01 3.452857,0.3384 5.245395,1.1131 0.73528,0.3177 1.327512,0.7904 1.808216,1.3048 0.331515,-0.1523 0.806723,-0.7308 0.741261,-1.2923 -0.161636,-1.3879 -1.626377,-2.1912 -1.880144,-2.3045 -1.770394,-0.7908 -3.975102,-1.0356 -5.914728,-1.0589 l 0,-1.7442 -2.01317,2.8787 2.01317,2.8783 0,-1.775 z m 8.423634,1.8658 c -0.08243,0.6478 -0.826766,2.0349 -3.89784,2.9138 l 0,4.5247 c 1.131448,-0.3677 2.464941,-1.2956 3.178724,-2.1988 0.291105,-0.3677 0.469066,-0.875 0.577362,-1.242 0.33216,-1.1229 0.186042,-3.3136 0.141754,-3.9977 z"
       id="Rotate"
       sketch:type="MSShapeGroup" />
  </g>
</svg>
