<?xml version="1.0" ?><!DOCTYPE svg  PUBLIC '-//W3C//DTD SVG 1.0//EN'  'http://www.w3.org/TR/2001/REC-SVG-20010904/DTD/svg10.dtd'><svg height="110px" style="enable-background:new 0 0 110 110;" version="1.0" viewBox="0 0 110 110" width="110px" xml:space="preserve" xmlns="http://www.w3.org/2000/svg" xmlns:xlink="http://www.w3.org/1999/xlink"><g id="Artboard"/><g id="Multicolor"><circle cx="55" cy="55" r="55" style="fill:#FABC3D;"/><g><path d="M37.992,74.453c0.76-0.871,1.858-1.37,3.014-1.37c1.155,0,2.254,0.5,3.014,1.369l7.969,11.182    C52.749,86.502,53.847,87,55,87s2.251-0.498,3.01-1.366l7.969-11.182c0.76-0.869,1.859-1.366,3.013-1.366    c1.154,0,2.256,0.497,3.015,1.367c1.838,2.106,4.23,8.815,6.33,11.194c1.001,1.134,2.556,1.607,4.019,1.221    s2.58-1.564,2.892-3.045C87,75.519,87,62.56,87,55c0-17.673-14.327-32-32-32c-17.673,0-32,14.327-32,32c0,7.56,0,20.696,1.752,29    c0.312,1.479,1.431,2.656,2.893,3.042s3.017-0.085,4.018-1.218C33.763,83.445,36.155,76.56,37.992,74.453z" style="fill:#0484AB;"/><path d="M23,55c0,7.56,0,20.696,1.752,29c0.312,1.479,1.432,2.656,2.893,3.042    c1.462,0.386,3.017-0.085,4.018-1.218c2.1-2.379,4.492-9.264,6.33-11.371c0.759-0.871,1.858-1.37,3.014-1.37    s2.253,0.5,3.014,1.369l7.969,11.182C52.749,86.502,53.847,87,55,87V23C37.327,23,23,37.327,23,55z" style="fill:#059BBF;"/><circle cx="69" cy="45" r="6" style="fill:#FFFFFF;"/><circle cx="47" cy="45" r="6" style="fill:#FFFFFF;"/><path d="M48.059,42.313c-0.532,0-1.024,0.158-1.445,0.42c0.408,0.238,0.695,0.662,0.695,1.169    c0,0.758-0.615,1.373-1.373,1.373c-0.226,0-0.43-0.068-0.618-0.164c0.028,1.492,1.242,2.695,2.741,2.695    c1.517,0,2.746-1.23,2.746-2.746S49.575,42.313,48.059,42.313z" style="fill:#3E3E3F;"/><path d="M70.254,42.313c-0.532,0-1.024,0.158-1.445,0.42c0.408,0.238,0.695,0.662,0.695,1.169    c0,0.758-0.615,1.373-1.373,1.373c-0.226,0-0.43-0.068-0.618-0.164c0.028,1.492,1.242,2.695,2.741,2.695    c1.517,0,2.746-1.23,2.746-2.746S71.77,42.313,70.254,42.313z" style="fill:#3E3E3F;"/></g></g></svg>